# xmcd
#
# Track frame offsets: 
#        150
#        13678
#        26454
#        38262
#        55441
#        66922
#        77504
#        92913
#        104003
#        117051
#
# Disc length: 1735 seconds
#
# Revision: 0
# Processed by: cddbd v1.5.2PL0 Copyright (c) Steve Scherf et al.
# Submitted via: ExactAudioCopyFreeDBPlugin 1.0
#
DISCID=7606c50a
DTITLE=Skeeter Davis - Skeeter
DYEAR=1971
DGENRE=Country
TTITLE0=Bus Fare to Kentucky
TTITLE1=I Look Up (And See You On My Mind)
TTITLE2=Instinct for Survival
TTITLE3=Sad Situation
TTITLE4=Help  Me Make It Through the Night
TTITLE5=There's A Fool Born Every Minute
TTITLE6=A Stranger in My Place
TTITLE7=Fall in with the Band
TTITLE8=Rachel
TTITLE9=I Still Belong to You
EXTD=
EXTT0=
EXTT1=
EXTT2=
EXTT3=
EXTT4=
EXTT5=
EXTT6=
EXTT7=
EXTT8=
EXTT9=
PLAYORDER=
